<?xml version="1.0" encoding="utf-8"?>
<!-- Generator: Adobe Illustrator 22.0.1, SVG Export Plug-In . SVG Version: 6.00 Build 0)  -->
<svg version="1.1" id="Layer_1" xmlns="http://www.w3.org/2000/svg" xmlns:xlink="http://www.w3.org/1999/xlink" x="0px" y="0px"
	 viewBox="0 0 204 42.9" style="enable-background:new 0 0 204 42.9;" xml:space="preserve">
<style type="text/css">
	.st0{fill:#F26722;}
</style>
<g>
	<path class="st0" d="M88,42h12c0,0,0-17.9,0-17.9L110.6,42h12.7V6.3h-12.4c0,0,0,18,0,18l-10.7-18H87.6V41L88,42z"/>
	<polygon class="st0" points="31.3,42 44.4,42 58.1,6.3 45.1,6.3 	"/>
	<path class="st0" d="M16.2,42h11.9L41.7,6.3H28.1l-5.9,19.5c0,0-5.8-19.5-5.8-19.5l-13.9,0L16.2,42z"/>
	<path class="st0" d="M48.5,42l13.8,0l1.1-4.5l9.7,0l1.1,4.5H88L75.5,6.3H61.2L48.5,42z M65.5,29c0,0,2.7-10.3,2.7-10.3L70.9,29
		L65.5,29z"/>
	<path class="st0" d="M161.7,42l12.6,0V30.2l6.2,11.8h14.4l-9.5-14.5c4.1-0.5,6.9-4,6.9-9.1c0-7.6-4.9-12-14.4-12h-16.1V42z
		 M174.3,15.5h2c2.5,0,3.8,1.3,3.8,3.5c0,2.2-1.3,3.4-3.8,3.4l-2,0V15.5z"/>
	<path class="st0" d="M123.3,24.2c0-10.7,8.6-19.3,19.3-19.3c10.7,0,19.3,8.6,19.3,19.3c0,10.7-8.6,19.3-19.3,19.3
		C131.9,43.5,123.3,34.9,123.3,24.2 M142.8,31.4c3.9,0,7.1-3.2,7.1-7.1c0-3.9-3.2-7.1-7.1-7.1c-3.9,0-7.1,3.2-7.1,7.1
		C135.6,28.2,138.8,31.4,142.8,31.4"/>
	<path class="st0" d="M192.6,6.6c0-2.5,2-4.5,4.5-4.5s4.5,2,4.5,4.5c0,2.5-2,4.4-4.5,4.4S192.6,9,192.6,6.6 M191.5,6.6
		c0,3,2.5,5.5,5.5,5.5s5.5-2.5,5.5-5.5c0-3-2.5-5.5-5.5-5.5S191.5,3.5,191.5,6.6 M195.7,6.2V4.5h1.1c0.8,0,1.2,0.3,1.2,0.8
		c0,0.5-0.4,0.8-1.2,0.8H195.7z M199.6,9.5l-0.7-1.2c-0.6-1.1-0.7-1.2-1.2-1.4v0c1-0.1,1.6-0.7,1.6-1.6c0-0.9-0.6-1.6-1.8-1.6h-3
		v5.9h1.2V7.1h0.4c0.6,0,1,0.4,1.6,1.5l0.5,0.9H199.6z"/>
	<path class="st0" d="M88,42h12c0,0,0-17.9,0-17.9L110.6,42h12.7V6.3h-12.4c0,0,0,18,0,18l-10.7-18H87.6V41L88,42z"/>
	<polygon class="st0" points="31.3,42 44.4,42 58.1,6.3 45.1,6.3 	"/>
	<path class="st0" d="M16.2,42h11.9L41.7,6.3H28.1l-5.9,19.5c0,0-5.8-19.5-5.8-19.5l-13.9,0L16.2,42z"/>
	<path class="st0" d="M48.5,42l13.8,0l1.1-4.5l9.7,0l1.1,4.5H88L75.5,6.3H61.2L48.5,42z M65.5,29c0,0,2.7-10.3,2.7-10.3L70.9,29
		L65.5,29z"/>
	<path class="st0" d="M161.7,42l12.6,0V30.2l6.2,11.8h14.4l-9.5-14.5c4.1-0.5,6.9-4,6.9-9.1c0-7.6-4.9-12-14.4-12h-16.1V42z
		 M174.3,15.5h2c2.5,0,3.8,1.3,3.8,3.5c0,2.2-1.3,3.4-3.8,3.4l-2,0V15.5z"/>
	<path class="st0" d="M123.3,24.2c0-10.7,8.6-19.3,19.3-19.3c10.7,0,19.3,8.6,19.3,19.3c0,10.7-8.6,19.3-19.3,19.3
		C131.9,43.5,123.3,34.9,123.3,24.2 M142.8,31.4c3.9,0,7.1-3.2,7.1-7.1c0-3.9-3.2-7.1-7.1-7.1c-3.9,0-7.1,3.2-7.1,7.1
		C135.6,28.2,138.8,31.4,142.8,31.4"/>
	<path class="st0" d="M192.6,6.6c0-2.5,2-4.5,4.5-4.5s4.5,2,4.5,4.5c0,2.5-2,4.4-4.5,4.4S192.6,9,192.6,6.6 M191.5,6.6
		c0,3,2.5,5.5,5.5,5.5s5.5-2.5,5.5-5.5c0-3-2.5-5.5-5.5-5.5S191.5,3.5,191.5,6.6 M195.7,6.2V4.5h1.1c0.8,0,1.2,0.3,1.2,0.8
		c0,0.5-0.4,0.8-1.2,0.8H195.7z M199.6,9.5l-0.7-1.2c-0.6-1.1-0.7-1.2-1.2-1.4v0c1-0.1,1.6-0.7,1.6-1.6c0-0.9-0.6-1.6-1.8-1.6h-3
		v5.9h1.2V7.1h0.4c0.6,0,1,0.4,1.6,1.5l0.5,0.9H199.6z"/>
</g>
</svg>
